#!OML:ASF E:\emotionWalksFemale\Project 1\Capture day 1\Session 1\Female1.ASF
:FULLY-SPECIFIED
:DEGREES
167
root 8.35397 15.1097 42.1656 -179.896 -12.5758 -180.876
lowerback 4.48736 2.22554 -0.458364
upperback 0.47593 2.89596 -0.926536
thorax -1.99865 1.43371 -0.870937
lowerneck 0.441659 16.2675 9.58815
upperneck -2.63077 21.7163 -6.68545
head 0.945613 10.8148 -3.20272
rclavicle -3.60918e-014 7.95139e-016
rhumerus -38.5369 20.1309 -98.6163
rradius 33.4655
rwrist 13.7384
rhand -6.84041 -53.5099
rfingers 7.12502
rthumb 19.0243 -82.5995
lclavicle -3.60918e-014 7.95139e-016
lhumerus -36.7026 -14.4859 93.7485
lradius 37.5165
lwrist -12.5137
lhand -3.59257 -37.932
lfingers 7.12502
lthumb 22.1452 -9.18034
rfemur -7.19091 5.78708 22.5478
rtibia 31.6637
rfoot -27.8477 -30.6797
rtoes 13.9585
lfemur -9.7723 -23.1139 -26.6241
ltibia 28.9831
lfoot -23.344 9.31262
ltoes -23.1468
168
root 8.35289 15.1083 42.1657 -179.944 -12.6116 -180.864
lowerback 4.52638 2.22656 -0.426529
upperback 0.493959 2.89834 -0.92039
thorax -2.00066 1.43447 -0.883748
lowerneck 0.384992 16.2861 9.46096
upperneck -2.60053 21.7349 -6.56728
head 0.936305 10.8236 -3.14165
rclavicle -5.04478e-014 -3.37934e-015
rhumerus -38.5316 20.1727 -98.6351
rradius 33.4747
rwrist 13.6489
rhand -6.7707 -53.7528
rfingers 7.12502
rthumb 19.0913 -82.8358
lclavicle -5.04478e-014 -3.37934e-015
lhumerus -36.7128 -14.484 93.7301
lradius 37.819
lwrist -11.5793
lhand -1.77335 -37.6547
lfingers 7.12502
lthumb 23.8908 -9.12069
rfemur -7.13368 5.86742 22.5672
rtibia 31.6371
rfoot -27.7692 -30.624
rtoes 14.1919
lfemur -9.74283 -22.9273 -26.6137
ltibia 28.9909
lfoot -23.3783 9.04464
ltoes -23.2133
169
root 8.3531 15.1093 42.1624 -179.97 -12.5909 -180.948
lowerback 4.51486 2.2442 -0.533595
upperback 0.514673 2.9153 -0.937205
thorax -1.97725 1.44325 -0.841229
lowerneck 0.387423 16.2856 9.48244
upperneck -2.60228 21.7348 -6.59522
head 0.94146 10.8237 -3.15325
rclavicle -4.28692e-014 1.15295e-014
rhumerus -38.5585 20.154 -98.6388
rradius 33.5272
rwrist 13.6538
rhand -6.58009 -54.0961
rfingers 7.12502
rthumb 19.2746 -83.1609
lclavicle -4.28692e-014 1.15295e-014
lhumerus -36.7185 -14.4757 93.7309
lradius 37.786
lwrist -11.7198
lhand -1.93135 -37.7433
lfingers 7.12502
lthumb 23.7392 -9.18953
rfemur -7.06204 5.8671 22.4861
rtibia 31.6298
rfoot -27.7306 -30.6071
rtoes 14.3695
lfemur -9.68019 -22.6678 -26.7084
ltibia 28.9745
lfoot -23.3502 8.92999
ltoes -24.3056
170
root 8.35379 15.1094 42.1609 -179.937 -12.5719 -180.998
lowerback 4.48219 2.24805 -0.611466
upperback 0.50917 2.91629 -0.953462
thorax -1.96768 1.44418 -0.813238
lowerneck 0.385046 16.3163 9.41604
upperneck -2.64555 21.7724 -6.46733
head 0.906121 10.841 -3.10556
rclavicle 3.88251e-014 -3.77691e-015
rhumerus -38.5873 20.1812 -98.6667
rradius 33.5739
rwrist 13.6193
rhand -6.32183 -54.1731
rfingers 7.12502
rthumb 19.523 -83.2129
lclavicle 3.88251e-014 -3.77691e-015
lhumerus -36.6154 -14.4325 93.6878
lradius 37.6608
lwrist -11.7814
lhand -1.94977 -37.7445
lfingers 7.12502
lthumb 23.7216 -9.18843
rfemur -7.07384 5.88812 22.4419
rtibia 31.6334
rfoot -27.8225 -30.5918
rtoes 14.4523
lfemur -9.67585 -22.8054 -26.7761
ltibia 28.9547
lfoot -23.3298 9.21086
ltoes -24.9769
171
root 8.3535 15.1082 42.1613 -179.883 -12.5679 -180.995
lowerback 4.47194 2.24879 -0.601149
upperback 0.475224 2.918 -0.966757
thorax -1.9956 1.44518 -0.833204
lowerneck 0.360942 16.3551 9.26505
upperneck -2.66333 21.8185 -6.23848
head 0.860471 10.8624 -3.01266
rclavicle -2.67117e-016 1.53064e-014
rhumerus -38.5949 20.2162 -98.7083
rradius 33.5411
rwrist 13.5369
rhand -6.50543 -54.0051
rfingers 7.12502
rthumb 19.3464 -83.0627
lclavicle -2.67117e-016 1.53064e-014
lhumerus -36.6073 -14.489 93.6716
lradius 37.6204
lwrist -11.7312
lhand -1.92144 -37.7408
lfingers 7.12502
lthumb 23.7487 -9.18832
rfemur -7.15629 5.91256 22.4371
rtibia 31.6482
rfoot -27.8447 -30.6168
rtoes 13.9513
lfemur -9.72166 -23.0176 -26.7753
ltibia 28.9375
lfoot -23.3476 9.46612
ltoes -24.9555
172
root 8.35257 15.1079 42.1612 -179.898 -12.5575 -180.983
lowerback 4.49396 2.25221 -0.567796
upperback 0.46566 2.9242 -0.963441
thorax -2.01618 1.44811 -0.850021
lowerneck 0.395756 16.3139 9.25898
upperneck -2.70372 21.766 -6.30856
head 0.845953 10.837 -3.04179
rclavicle -7.26806e-015 -3.57812e-015
rhumerus -38.5866 20.1841 -98.6914
rradius 33.4927
rwrist 13.6262
rhand -6.78131 -53.8871
rfingers 7.12502
rthumb 19.0811 -82.9711
lclavicle -7.26806e-015 -3.57812e-015
lhumerus -36.7415 -14.5278 93.6817
lradius 37.7372
lwrist -11.7123
lhand -1.78573 -37.7007
lfingers 7.12502
lthumb 23.8789 -9.16519
rfemur -7.15721 5.96311 22.4465
rtibia 31.6559
rfoot -27.7126 -30.7323
rtoes 13.9423
lfemur -9.69876 -23.086 -26.7765
ltibia 28.9395
lfoot -23.3443 9.42031
ltoes -24.0386
